<svg width="317" height="124" viewBox="0 0 317 124" fill="none" xmlns="http://www.w3.org/2000/svg">
<path d="M53.9756 51.9982C39.975 46.1449 26.9827 40.0608 26.9827 29.6715C26.9827 18.7204 38.8781 14.6878 49.2236 14.8148C56.5798 14.9269 67.3784 16.1256 77.0068 22.3067L78.8156 23.4704V4.14468L78.0151 3.89891C69.4376 1.31078 60.235 0 50.6594 0C29.1611 0 4.02986 8.26261 4.02986 31.5842C4.02986 52.2942 22.8251 60.428 39.4146 67.624C53.2858 73.5994 66.3615 79.2705 66.3615 91.1512C66.3615 102.338 51.9607 108.278 41.5931 108.278C27.8888 108.278 13.3568 102.945 2.66216 93.9984L0 91.7949L6.16061 117.577L6.75845 117.786C16.6781 121.318 27.7253 123.125 39.6105 123.125C67.0088 123.125 89.3178 106.366 89.3178 85.7425C89.3195 67.5889 70.9245 59.0822 53.9756 51.9982Z" fill="white"/>
<path d="M293.09 100.476C293.09 100.476 258.065 56.6018 257.019 55.271C258.065 53.9852 302.853 3.07875 302.853 3.07875L302.904 2.94667H267.228V3.46162C277.211 7.92731 272.178 16.2501 266.542 22.7321C259.466 30.8978 234.962 58.456 234.962 58.456C234.962 45.5906 234.962 30.1471 234.962 30.1471C235.055 21.3394 233.766 7.01277 244.185 3.49673V2.91992H204.985V3.49673C215.434 7.21173 214.135 21.5016 214.187 30.3661C214.187 30.3661 214.187 95.6076 214.187 97.45C214.198 105.723 213.516 115.512 204.975 118.389V118.976H244.185V118.389C236.413 115.898 234.817 103.9 234.967 97.3781C234.962 93.9072 234.962 58.991 234.962 58.991L274.55 109.678C279.781 115.95 287.823 119.1 297.867 118.946H317V118.349C306.68 113.531 299.37 108.351 293.09 100.476Z" fill="white"/>
<path d="M163.738 82.7416C166.165 84.8799 170.091 87.6453 173.33 88.508C177.766 89.6767 182.71 89.4827 187.024 87.5132C193.643 84.5171 195.614 79.1185 195.432 74.8518C195.312 71.6818 193.981 69.4114 192.562 67.7127C190.857 65.7332 187.643 64.2017 184.826 64.3237C180.516 64.2619 175.562 66.5741 173.68 74.1228C175.894 72.0246 179.987 69.0502 184.701 69.1924C190.066 69.3462 192.303 73.0762 191.908 75.5506C191.502 78.0418 188.627 80.879 182.923 80.4711C179.798 80.2253 176.413 78.4046 172.753 75.1126L145.677 48.9572C139.942 43.4666 136.735 38.3221 136.142 33.5354C135.341 26.9364 138.305 20.1334 144.071 19.4914C149.93 18.8477 154.312 23.0325 155.171 30.3153C156.044 37.1033 151.141 44.3694 146.561 48.2583C152.473 48.0176 158.534 43.3228 160.796 39.8987C166.167 31.7532 163.484 22.7315 157.364 18.112C148.724 11.5899 134.904 13.5444 128.718 23.4755C119.208 38.807 132.94 53.4279 136.735 57.1078L163.738 82.7416Z" fill="white"/>
<path d="M161.785 83.2981C153.934 95.2406 140.319 99.4154 131.349 92.1275C122.59 84.9985 120.285 70.4695 134.906 57.6743C134.906 57.6743 125.949 58.3932 119.776 64.6713C109.717 74.8416 109.112 90.1279 120.473 100.36C127.517 106.703 142.002 109.23 153.357 99.7632C158.031 95.9445 162.19 88.7536 161.785 83.2981Z" fill="white"/>
</svg>
